<svg width="22" height="18" viewBox="0 0 22 18" fill="none" xmlns="http://www.w3.org/2000/svg">
<path fill-rule="evenodd" clip-rule="evenodd" d="M0.359619 3H21.6185L18.4042 18H4.10962L0.359619 3ZM1.6404 4L4.8904 17H17.5958L20.3815 4H1.6404Z" fill="#B3B3B3"/>
<path fill-rule="evenodd" clip-rule="evenodd" d="M11 13C12.6569 13 14 11.6569 14 10C14 8.34315 12.6569 7 11 7C9.34315 7 8 8.34315 8 10C8 11.6569 9.34315 13 11 13ZM11 14C13.2091 14 15 12.2091 15 10C15 7.79086 13.2091 6 11 6C8.79086 6 7 7.79086 7 10C7 12.2091 8.79086 14 11 14Z" fill="#B3B3B3"/>
<rect x="4" width="14" height="1" fill="#C4C4C4"/>
</svg>
