<svg width="11" height="13" viewBox="0 0 11 13" fill="none" xmlns="http://www.w3.org/2000/svg">
<path fill-rule="evenodd" clip-rule="evenodd" d="M9.23515 4C9.23515 5.65685 7.89201 7 6.23515 7C4.5783 7 3.23515 5.65685 3.23515 4C3.23515 2.34315 4.5783 1 6.23515 1C7.89201 1 9.23515 2.34315 9.23515 4ZM6.59568 7.98397C8.63589 7.80171 10.2352 6.08762 10.2352 4C10.2352 1.79086 8.44429 0 6.23515 0C4.02601 0 2.23515 1.79086 2.23515 4C2.23515 4.32643 2.27425 4.64373 2.34803 4.94746L0.143333 10.3204L0.143216 10.3207L0.143162 10.3208C-0.219195 11.2025 0.126498 12.2164 0.952097 12.693C1.77782 13.1698 2.82888 12.9621 3.41124 12.2071L3.41126 12.2071L3.41509 12.2021L6.59568 7.98397ZM5.22891 7.87237C4.32886 7.63916 3.55184 7.10044 3.01511 6.37349L1.21494 10.7606L1.21477 10.761C1.07282 11.1062 1.20812 11.5031 1.53134 11.6897C1.85377 11.8759 2.26397 11.7954 2.49226 11.5017L5.22891 7.87237Z" fill="#B3B3B3"/>
</svg>
