<svg width="12" height="14" viewBox="0 0 12 14" fill="none" xmlns="http://www.w3.org/2000/svg">
<path fill-rule="evenodd" clip-rule="evenodd" d="M12 0V0.662865V8.66286C12 10.0436 10.8807 11.1629 9.5 11.1629C8.11929 11.1629 7 10.0436 7 8.66286C7 7.28215 8.11929 6.16287 9.5 6.16287C10.0628 6.16287 10.5822 6.34884 11 6.66268V1.32573L5 3.04002V10.6629C5 12.0436 3.88071 13.1629 2.5 13.1629C1.11929 13.1629 0 12.0436 0 10.6629C0 9.28215 1.11929 8.16286 2.5 8.16286C3.0628 8.16286 3.58217 8.34884 4 8.66268V2.66286V2.28571L4.36264 2.1821L11.3626 0.182103L12 0ZM11 8.66286C11 7.83444 10.3284 7.16287 9.5 7.16287C8.67157 7.16287 8 7.83444 8 8.66286C8 9.49129 8.67157 10.1629 9.5 10.1629C10.3284 10.1629 11 9.49129 11 8.66286ZM2.5 9.16286C3.32843 9.16286 4 9.83444 4 10.6629C4 11.4913 3.32843 12.1629 2.5 12.1629C1.67157 12.1629 1 11.4913 1 10.6629C1 9.83444 1.67157 9.16286 2.5 9.16286Z" fill="#ABABAB"/>
</svg>
