<svg width="14" height="12" viewBox="0 0 14 12" fill="none" xmlns="http://www.w3.org/2000/svg">
<path fill-rule="evenodd" clip-rule="evenodd" d="M7.5 0V0.902124V10.4021V11.2111L6.77639 10.8493L2.88197 8.90212H0.5H0V8.40212V3.40212V2.90212H0.5H2.8566L6.735 0.478125L7.5 0ZM6.5 1.80425L3.265 3.82612L3.1434 3.90212H3H1V7.90212H3H3.11803L3.22361 7.95491L6.5 9.59311V1.80425ZM8.94118 2.37271C9.10361 2.21028 9.36697 2.21028 9.52941 2.37271C11.4787 4.32195 11.4787 7.4823 9.52941 9.43153C9.36697 9.59397 9.10361 9.59397 8.94118 9.43154C8.77874 9.2691 8.77874 9.00574 8.94118 8.8433C10.5655 7.21893 10.5655 4.58531 8.94118 2.96095C8.77874 2.79851 8.77874 2.53515 8.94118 2.37271ZM11.2941 0.608006C11.1317 0.44557 10.8683 0.44557 10.7059 0.608006C10.5434 0.770443 10.5434 1.0338 10.7059 1.19624C13.3049 3.79523 13.3049 8.00902 10.7059 10.608C10.5434 10.7704 10.5434 11.0338 10.7059 11.1962C10.8683 11.3587 11.1317 11.3587 11.2941 11.1962C14.218 8.27238 14.218 3.53187 11.2941 0.608006Z" fill="#ABABAB"/>
</svg>
