<svg width="24" height="17" viewBox="0 0 24 17" fill="none" xmlns="http://www.w3.org/2000/svg">
<path fill-rule="evenodd" clip-rule="evenodd" d="M12 10C13.1046 10 14 9.10457 14 8C14 6.89543 13.1046 6 12 6C10.8954 6 10 6.89543 10 8C10 9.10457 10.8954 10 12 10ZM12 11C13.6569 11 15 9.65685 15 8C15 6.34315 13.6569 5 12 5C10.3431 5 9 6.34315 9 8C9 9.65685 10.3431 11 12 11Z" fill="#B3B3B3"/>
<path fill-rule="evenodd" clip-rule="evenodd" d="M4.62816 7.00816C5.0729 4.92511 6.58314 3.37572 7.82176 2.57947L8.36251 3.42065C7.2678 4.12439 5.97803 5.47501 5.60611 7.21696C5.24374 8.9142 5.72544 11.1201 8.43236 13.6337L7.75191 14.3665C4.85883 11.68 4.17386 9.13591 4.62816 7.00816Z" fill="#B3B3B3"/>
<path fill-rule="evenodd" clip-rule="evenodd" d="M19.464 7.00816C19.0193 4.92511 17.509 3.37572 16.2704 2.57947L15.7296 3.42065C16.8244 4.12439 18.1141 5.47501 18.486 7.21696C18.8484 8.9142 18.3667 11.1201 15.6598 13.6337L16.3403 14.3665C19.2333 11.68 19.9183 9.13591 19.464 7.00816Z" fill="#B3B3B3"/>
<path fill-rule="evenodd" clip-rule="evenodd" d="M23.3809 6.53289C22.9656 3.79942 21.5438 1.72093 20.3353 0.629028L19.6649 1.37102C20.7203 2.32458 22.0151 4.20063 22.3922 6.68307C22.7663 9.14588 22.244 12.2494 19.6032 15.6959L20.397 16.3041C23.1894 12.6597 23.7991 9.28599 23.3809 6.53289Z" fill="#B3B3B3"/>
<path fill-rule="evenodd" clip-rule="evenodd" d="M0.619268 6.53289C1.03451 3.79942 2.45633 1.72093 3.66483 0.629028L4.33524 1.37102C3.27986 2.32458 1.98504 4.20063 1.60793 6.68307C1.2338 9.14588 1.75609 12.2494 4.39692 15.6959L3.60315 16.3041C0.810684 12.6597 0.201041 9.28599 0.619268 6.53289Z" fill="#B3B3B3"/>
</svg>
