<svg width="15" height="12" viewBox="0 0 15 12" fill="none" xmlns="http://www.w3.org/2000/svg">
<path d="M9.5 4V0L13 2L9.5 4Z" fill="#B3B3B3"/>
<path fill-rule="evenodd" clip-rule="evenodd" d="M1.74144 3.10282C2.58537 1.83038 4.11987 1.5 5.43889 1.5H9.5C9.77614 1.5 10 1.72386 10 2C10 2.27614 9.77614 2.5 9.5 2.5H5.43889C4.22049 2.5 3.13335 2.81338 2.5748 3.65554C2.00775 4.51051 1.5 5.78258 1.5 7.5C1.5 7.77614 1.27614 8 1 8C0.723858 8 0.5 7.77614 0.5 7.5C0.5 5.57609 1.0713 4.11322 1.74144 3.10282Z" fill="#B3B3B3"/>
<path d="M5.5 8V12L2 10L5.5 8Z" fill="#B3B3B3"/>
<path fill-rule="evenodd" clip-rule="evenodd" d="M13.2586 8.89718C12.4146 10.1696 10.8801 10.5 9.56111 10.5H5.5C5.22386 10.5 5 10.2761 5 10C5 9.72386 5.22386 9.5 5.5 9.5H9.56111C10.7795 9.5 11.8666 9.18662 12.4252 8.34446C12.9923 7.48949 13.5 6.21742 13.5 4.5C13.5 4.22386 13.7239 4 14 4C14.2761 4 14.5 4.22386 14.5 4.5C14.5 6.42391 13.9287 7.88678 13.2586 8.89718Z" fill="#B3B3B3"/>
</svg>
