<svg width="16" height="11" viewBox="0 0 16 11" fill="none" xmlns="http://www.w3.org/2000/svg">
<path d="M12 4V0L15.5 2L12 4Z" fill="#B3B3B3"/>
<path fill-rule="evenodd" clip-rule="evenodd" d="M10.7581 2.77681C9.80226 3.09543 8.67449 3.77152 7.94721 5.22608C7.0953 6.9299 5.76806 8.12062 4.46525 8.88388C3.17363 9.64059 1.86176 10.0025 1 10.0025C0.723856 10.0025 0.499999 9.77861 0.5 9.50247C0.500001 9.22633 0.723859 9.00247 1 9.00247C1.63824 9.00247 2.77637 8.71435 3.95975 8.02106C5.13194 7.33432 6.3047 6.27504 7.05279 4.77886C7.92551 3.03341 9.29774 2.20951 10.4419 1.82813C11.0112 1.63837 11.5253 1.55719 11.8985 1.52327C12.0855 1.50627 12.2384 1.50102 12.3467 1.50014C12.4009 1.4997 12.4441 1.50035 12.4749 1.50119C12.4904 1.5016 12.5027 1.50207 12.5118 1.50246L12.5231 1.50299L12.5268 1.50319L12.5283 1.50327L12.5289 1.5033C12.5291 1.50332 12.5294 1.50333 12.5 2.00247L12.5294 1.50333C12.805 1.51955 13.0154 1.75616 12.9991 2.03183C12.9829 2.30706 12.7471 2.51716 12.4719 2.50168C12.4719 2.50168 12.4719 2.50168 12.4719 2.50168C12.4718 2.50167 12.4716 2.50166 12.4714 2.50165L12.4711 2.50163C12.4709 2.50162 12.4708 2.50161 12.4706 2.50161L12.4686 2.50152L12.4479 2.50082C12.4282 2.50029 12.3967 2.49977 12.3548 2.50011C12.271 2.50079 12.1458 2.50492 11.989 2.51917C11.6747 2.54774 11.2388 2.61657 10.7581 2.77681Z" fill="#B3B3B3"/>
<path fill-rule="evenodd" clip-rule="evenodd" d="M10.689 8.03587C10.2415 7.97575 9.58123 7.7656 8.82463 7.11975C8.61461 6.94046 8.29901 6.96538 8.11972 7.17541C7.94044 7.38543 7.96536 7.70103 8.17538 7.88032C9.07876 8.65147 9.91841 8.94133 10.5559 9.02696C10.872 9.06942 11.1326 9.06094 11.3202 9.03996C11.414 9.02947 11.4896 9.01584 11.5449 9.00387C11.5726 8.99788 11.5952 8.99229 11.6126 8.98769L11.6346 8.98161L11.6426 8.97927L11.6458 8.97829L11.6472 8.97785L11.6479 8.97765C11.6482 8.97755 11.6485 8.97745 11.501 8.50342L11.6485 8.97745C11.9122 8.8954 12.0594 8.61513 11.9773 8.35146C11.8959 8.08973 11.6191 7.94273 11.3571 8.02086C11.3552 8.02143 11.3533 8.02202 11.3513 8.02262L11.4999 8.50004C11.3513 8.02262 11.3516 8.02253 11.3519 8.02244L11.3525 8.02226L11.3536 8.02194L11.3553 8.02141" fill="#B3B3B3"/>
<path d="M11 6.50244V10.5024L14.5 8.50244L11 6.50244Z" fill="#B3B3B3"/>
<path fill-rule="evenodd" clip-rule="evenodd" d="M6.0347 4.46305C6.21628 4.255 6.19482 3.93915 5.98678 3.75757C4.25778 2.24852 2.18542 1.62856 1.05526 1.50298C0.780806 1.47249 0.533597 1.67026 0.503102 1.94471C0.472607 2.21916 0.670375 2.46637 0.944828 2.49687C1.90788 2.60387 3.77871 3.1577 5.32922 4.51097C5.53726 4.69255 5.85312 4.6711 6.0347 4.46305Z" fill="#B3B3B3"/>
</svg>
