<svg width="16" height="14" viewBox="0 0 16 14" fill="none" xmlns="http://www.w3.org/2000/svg">
<path d="M0.5 9.5V4.5H3.5L7.5 1.5V12.5L3.5 9.5H0.5Z" stroke="#AFAFAF"/>
<path fill-rule="evenodd" clip-rule="evenodd" d="M11.2803 6.03489C11.1236 4.964 10.5877 4.22393 10.1799 3.8841L10.8201 3.11588C11.4123 3.60937 12.0765 4.5693 12.2697 5.89009C12.4651 7.22494 12.1746 8.88947 10.916 10.7773L10.084 10.2226C11.2254 8.5105 11.4349 7.0917 11.2803 6.03489Z" fill="#AFAFAF"/>
<path fill-rule="evenodd" clip-rule="evenodd" d="M12.5789 12.7304C16.069 7.27955 13.9916 3.5224 12.6723 2.37766L13.3276 1.62234C15.0268 3.09665 17.1753 7.40617 13.421 13.2696L12.5789 12.7304Z" fill="#AFAFAF"/>
</svg>
